<svg xmlns="http://www.w3.org/2000/svg" viewBox="0 0 24 24" fill="#000"><path d="M12.206.793c.99 0 4.347.276 5.93 3.821.529 1.193.403 3.219.299 4.847l-.003.06c-.012.18-.022.345-.03.51.075.045.203.09.401.09.3-.016.659-.12.922-.214.04-.012.06-.012.1-.012.18 0 .36.048.51.136.27.168.36.42.36.612 0 .336-.31.56-.66.68a4.288 4.288 0 0 1-.39.12c-.21.06-.39.12-.57.194-.27.12-.42.313-.42.602 0 .06.015.12.03.18.09.36.27.72.479 1.062.18.27.36.54.539.78.449.6.898 1.018 1.409 1.339.18.12.36.18.6.241.12.03.24.06.27.06.36.06.54.24.54.48 0 .12-.06.24-.12.36a1.607 1.607 0 0 1-.63.42c-.48.18-.96.27-1.439.36-.12.03-.24.06-.362.09-.06.03-.12.09-.18.21-.06.18-.12.36-.24.48-.24.27-.54.3-.9.3-.12 0-.24 0-.42-.03a3.04 3.04 0 0 0-.57-.06 3.12 3.12 0 0 0-.63.09c-.57.18-1.11.57-1.77.96-.6.36-1.23.74-1.92.96-.24.06-.51.12-.78.12s-.54-.06-.78-.12c-.69-.22-1.32-.6-1.92-.96-.66-.39-1.2-.78-1.77-.96a3.12 3.12 0 0 0-.63-.09c-.18 0-.39.03-.57.06-.18.03-.3.03-.42.03-.36 0-.66-.03-.9-.3-.12-.12-.18-.3-.24-.48-.06-.12-.12-.18-.18-.21-.12-.03-.24-.06-.36-.09-.48-.09-.96-.18-1.44-.36a1.607 1.607 0 0 1-.63-.42c-.06-.12-.12-.24-.12-.36 0-.24.18-.42.54-.48.03 0 .15-.03.27-.06.24-.06.42-.12.6-.24.51-.32.96-.74 1.41-1.34.18-.24.36-.51.54-.78.21-.342.39-.702.48-1.062.015-.06.03-.12.03-.18 0-.289-.15-.481-.42-.601-.18-.075-.36-.135-.57-.195a4.288 4.288 0 0 1-.39-.12c-.35-.12-.66-.344-.66-.68 0-.192.09-.444.36-.612a.813.813 0 0 1 .51-.136c.04 0 .06 0 .1.012.27.09.63.22.92.214a.806.806 0 0 0 .4-.09c-.008-.165-.018-.33-.03-.51l-.002-.06c-.105-1.628-.23-3.654.3-4.847C7.86 1.069 11.216.793 12.206.793"/></svg>
